<svg xmlns="http://www.w3.org/2000/svg" viewBox="0 0 400 400" width="400" height="400">
  <defs>
    <linearGradient id="grad1" x1="0%" y1="0%" x2="100%" y2="100%">
      <stop offset="0%" style="stop-color:#667eea;stop-opacity:1" />
      <stop offset="100%" style="stop-color:#764ba2;stop-opacity:1" />
    </linearGradient>
  </defs>

  <!-- Background -->
  <rect width="400" height="400" fill="#1a1a2e"/>

  <!-- Grammophon Hexaliminal Structure -->
  <circle cx="200" cy="200" r="120" fill="none" stroke="url(#grad1)" stroke-width="2" opacity="0.6"/>
  <circle cx="200" cy="200" r="80" fill="none" stroke="url(#grad1)" stroke-width="2" opacity="0.8"/>
  <circle cx="200" cy="200" r="40" fill="none" stroke="url(#grad1)" stroke-width="2"/>

  <!-- Hexagon -->
  <polygon points="200,80 288,140 288,260 200,320 112,260 112,140"
           fill="none" stroke="#667eea" stroke-width="2" opacity="0.7"/>

  <!-- Center point -->
  <circle cx="200" cy="200" r="5" fill="#764ba2"/>

  <!-- Slice rotation indicators -->
  <line x1="200" y1="200" x2="288" y2="140" stroke="#667eea" stroke-width="1" opacity="0.5"/>
  <line x1="200" y1="200" x2="288" y2="260" stroke="#667eea" stroke-width="1" opacity="0.5"/>
  <line x1="200" y1="200" x2="200" y2="80" stroke="#667eea" stroke-width="1" opacity="0.5"/>
  <line x1="200" y1="200" x2="112" y2="140" stroke="#667eea" stroke-width="1" opacity="0.5"/>
  <line x1="200" y1="200" x2="112" y2="260" stroke="#667eea" stroke-width="1" opacity="0.5"/>
  <line x1="200" y1="200" x2="200" y2="320" stroke="#667eea" stroke-width="1" opacity="0.5"/>

  <!-- Text -->
  <text x="200" y="365" font-family="monospace" font-size="14" fill="#667eea" text-anchor="middle">
    Grammophon Hexaliminal (Seed)
  </text>
  <text x="200" y="385" font-family="monospace" font-size="10" fill="#667eea" text-anchor="middle" opacity="0.7">
    Slice-Rotation · Polyeder-Klanggeometrie
  </text>
</svg>
